<?xml version="1.0" encoding="UTF-8"?>
<svg version="1.1" xmlns="http://www.w3.org/2000/svg" width="1080" height="1080">
<path d="M0 0 C0.98021622 -0.0066568 1.96043243 -0.0133136 2.97035217 -0.02017212 C5.03335722 -0.03022632 7.09639431 -0.0349914 9.15942383 -0.03466797 C12.2468318 -0.03900862 15.33276877 -0.07531738 18.41992188 -0.11328125 C47.71665973 -0.27973249 78.47493225 7.71659961 102.34765625 25.3359375 C103.37503906 26.02816406 104.40242187 26.72039062 105.4609375 27.43359375 C116.52766258 34.94500228 127.14745268 43.70188355 135.34765625 54.3359375 C136.09015625 55.0578125 136.83265625 55.7796875 137.59765625 56.5234375 C146.96135741 66.09995006 153.22273432 77.11647945 159.47265625 88.8359375 C159.89272949 89.6189624 160.31280273 90.4019873 160.74560547 91.20874023 C165.94597346 101.08820565 169.29415281 111.00370014 171.97265625 121.8359375 C172.43103882 123.68880371 172.43103882 123.68880371 172.89868164 125.57910156 C175.20042022 135.16644649 176.82766807 144.49467965 177.34765625 154.3359375 C177.41726563 155.59148437 177.486875 156.84703125 177.55859375 158.140625 C178.18669847 181.76702553 173.93868644 208.06892234 163.34765625 229.3359375 C163.03989258 229.96097168 162.73212891 230.58600586 162.41503906 231.22998047 C147.60658472 261.05080425 126.77926629 284.59209898 98.5390625 302.328125 C96.40848116 303.6685397 94.30360928 305.05069807 92.2265625 306.47265625 C89.71890704 308.09565714 87.50478016 309.23611639 84.72265625 310.2734375 C81.08671902 311.65573908 77.53007118 313.13823853 73.97265625 314.7109375 C68.59856908 316.94208166 63.14907674 318.79385454 57.59765625 320.5234375 C56.82502441 320.77335449 56.05239258 321.02327148 55.25634766 321.28076172 C41.96356493 325.29761771 28.18750101 325.68901232 14.41015625 325.5859375 C13.29620987 325.58128479 13.29620987 325.58128479 12.15975952 325.57653809 C-16.95861684 325.43406764 -43.36231623 318.9332693 -68.65234375 304.3359375 C-69.55210937 303.83320312 -70.451875 303.33046875 -71.37890625 302.8125 C-105.67986448 283.10306051 -132.56323406 248.24156857 -143.65234375 210.3359375 C-153.56818741 171.31628803 -153.27907233 131.27673961 -135.65234375 94.3359375 C-134.84216797 92.59183594 -134.84216797 92.59183594 -134.015625 90.8125 C-130.35696205 83.20026929 -130.35696205 83.20026929 -127.6015625 79.8203125 C-125.58648646 77.50925563 -125.58648646 77.50925563 -124.796875 75.0546875 C-123.01410295 70.81984331 -120.1485575 67.44580489 -117.33984375 63.8359375 C-116.77072266 63.08957031 -116.20160156 62.34320313 -115.61523438 61.57421875 C-112.51440237 57.55132534 -109.33770173 53.84854433 -105.65234375 50.3359375 C-104.76546875 49.4078125 -103.87859375 48.4796875 -102.96484375 47.5234375 C-100.65234375 45.3359375 -100.65234375 45.3359375 -98.65234375 45.3359375 C-98.65234375 44.6759375 -98.65234375 44.0159375 -98.65234375 43.3359375 C-97.99234375 43.3359375 -97.33234375 43.3359375 -96.65234375 43.3359375 C-96.41225586 42.74949463 -96.17216797 42.16305176 -95.92480469 41.55883789 C-94.39573096 38.88765288 -92.75667597 37.60624561 -90.29296875 35.76953125 C-89.42414063 35.11919922 -88.5553125 34.46886719 -87.66015625 33.79882812 C-86.29503906 32.79625977 -86.29503906 32.79625977 -84.90234375 31.7734375 C-83.56042969 30.76506836 -83.56042969 30.76506836 -82.19140625 29.73632812 C-77.8198582 26.48990564 -73.62443184 23.60824925 -68.65234375 21.3359375 C-67.41043606 20.56441168 -66.17965935 19.77445447 -64.96484375 18.9609375 C-60.10699155 15.87126905 -54.92886694 13.61093359 -49.65234375 11.3359375 C-48.59660156 10.85511719 -47.54085937 10.37429688 -46.453125 9.87890625 C-41.89474569 7.93178191 -37.16640059 6.61741025 -32.40234375 5.2734375 C-31.52449219 5.01755859 -30.64664063 4.76167969 -29.7421875 4.49804688 C-28.42154297 4.12196289 -28.42154297 4.12196289 -27.07421875 3.73828125 C-26.2965918 3.51648193 -25.51896484 3.29468262 -24.71777344 3.06616211 C-16.44417128 1.09528412 -8.50518962 0.02083485 0 0 Z " fill="#3D503C" transform="translate(526.65234375,361.6640625)"/>
<path d="M0 0 C1.24101974 -0.01354271 1.24101974 -0.01354271 2.5071106 -0.02735901 C4.25714499 -0.0418624 6.00723362 -0.05074847 7.75732422 -0.05444336 C10.4289942 -0.06633363 13.09834923 -0.11550905 15.76953125 -0.16601562 C17.47134291 -0.17548093 19.17316874 -0.18271545 20.875 -0.1875 C22.06897903 -0.21679848 22.06897903 -0.21679848 23.28707886 -0.24668884 C27.56435201 -0.21206098 29.09934958 -0.00964949 32.55126953 2.78100586 C35.53700228 6.61119192 35.6749798 8.55639787 35.5703125 13.37109375 C36.7665625 13.30921875 37.9628125 13.24734375 39.1953125 13.18359375 C43.32745778 13.18359375 46.04819428 14.10687489 49.5703125 16.37109375 C52.59466347 20.90762021 51.89927262 25.34722276 51.8828125 30.68359375 C51.89892578 31.71677734 51.91503906 32.74996094 51.93164062 33.81445312 C51.93520382 39.36946674 51.85713785 43.65253652 48.5703125 48.37109375 C45.2566025 50.58023375 44.2257104 50.59590928 40.3828125 50.49609375 C39.48175781 50.47804688 38.58070313 50.46 37.65234375 50.44140625 C36.96527344 50.41820312 36.27820313 50.395 35.5703125 50.37109375 C35.6528125 51.23734375 35.7353125 52.10359375 35.8203125 52.99609375 C35.51127923 57.16804294 34.13667235 59.12540335 31.5703125 62.37109375 C26.62156834 64.84546583 18.96407656 63.6839694 13.45874023 63.72119141 C11.66336092 63.73774466 9.86804734 63.76502665 8.07299805 63.80322266 C5.48191209 63.85806298 2.89236982 63.87987523 0.30078125 63.89453125 C-0.49834183 63.91720062 -1.2974649 63.93987 -2.12080383 63.96322632 C-6.41080321 63.94700964 -7.94859663 63.75938396 -11.4128418 60.96337891 C-14.07070903 57.54717817 -14.55679151 55.9662689 -14.59082031 51.7253418 C-14.60042786 50.76061447 -14.6100354 49.79588715 -14.61993408 48.80192566 C-14.62418396 47.75611832 -14.62843384 46.71031097 -14.6328125 45.6328125 C-14.64136261 44.02343559 -14.64136261 44.02343559 -14.65008545 42.38154602 C-14.65954433 40.10764556 -14.66607294 37.83373133 -14.66992188 35.55981445 C-14.67961872 32.083252 -14.71063072 28.60728277 -14.7421875 25.13085938 C-14.74871829 22.9231806 -14.75396847 20.71549759 -14.7578125 18.5078125 C-14.7701593 17.46807785 -14.7825061 16.4283432 -14.79522705 15.35710144 C-14.76711906 6.23299281 -14.76711906 6.23299281 -11.4296875 2.37109375 C-7.60764408 -0.1769352 -4.43579551 0.02973353 0 0 Z " fill="#FCFCFC" transform="translate(529.4296875,479.62890625)"/>
<path d="M0 0 C1.32 0 2.64 0 4 0 C4.08160748 1.89510699 4.13946459 3.79124504 4.1875 5.6875 C4.23970703 7.27111328 4.23970703 7.27111328 4.29296875 8.88671875 C3.88626507 13.20862322 2.42200751 15.70530424 -0.76977539 18.61132812 C-3.48944516 20.30475797 -5.23452369 20.42318121 -8.421875 20.51171875 C-9.95908203 20.56489258 -9.95908203 20.56489258 -11.52734375 20.61914062 C-13.12255859 20.65297852 -13.12255859 20.65297852 -14.75 20.6875 C-16.36841797 20.73874023 -16.36841797 20.73874023 -18.01953125 20.79101562 C-20.67958377 20.87340663 -23.33931035 20.94258645 -26 21 C-26 21.99 -26 22.98 -26 24 C-25.19780029 24.01458252 -24.39560059 24.02916504 -23.5690918 24.04418945 C-19.94140301 24.11856719 -16.31464496 24.21526243 -12.6875 24.3125 C-10.79354492 24.34633789 -10.79354492 24.34633789 -8.86132812 24.38085938 C-7.04858398 24.4340332 -7.04858398 24.4340332 -5.19921875 24.48828125 C-4.08377686 24.51446533 -2.96833496 24.54064941 -1.8190918 24.56762695 C1 25 1 25 2.86010742 26.34838867 C4.67612634 28.9796519 4.44328644 30.89699491 4 34 C1.85931042 36.79799676 0.65354193 37.87441391 -2.84082031 38.54589844 C-3.90913086 38.5668457 -4.97744141 38.58779297 -6.078125 38.609375 C-7.23828125 38.64160156 -8.3984375 38.67382812 -9.59375 38.70703125 C-10.8003125 38.72121094 -12.006875 38.73539062 -13.25 38.75 C-14.47203125 38.77964844 -15.6940625 38.80929687 -16.953125 38.83984375 C-19.96881644 38.91052402 -22.9837355 38.96323175 -26 39 C-26 39.99 -26 40.98 -26 42 C-25.26885986 42.00410889 -24.53771973 42.00821777 -23.78442383 42.01245117 C-20.45963693 42.04542209 -17.13667384 42.11607147 -13.8125 42.1875 C-12.08676758 42.19620117 -12.08676758 42.19620117 -10.32617188 42.20507812 C-1.83627589 42.42655367 -1.83627589 42.42655367 2.28125 45.25 C4.09234676 48.14775482 4.56319706 49.4531594 4.3125 52.8125 C4.26738281 53.60269531 4.22226562 54.39289063 4.17578125 55.20703125 C4.11777344 55.79871094 4.05976562 56.39039063 4 57 C2.68 57 1.36 57 0 57 C-0.22786458 54.94921875 -0.45572917 52.8984375 -0.68359375 50.84765625 C-0.81886614 48.98859771 -0.81886614 48.98859771 -2 48 C-3.89097586 47.89063737 -5.78565656 47.84413631 -7.6796875 47.82421875 C-8.83597656 47.80037109 -9.99226562 47.77652344 -11.18359375 47.75195312 C-13.63654391 47.70912384 -16.08972297 47.67779774 -18.54296875 47.65820312 C-19.70183594 47.63048828 -20.86070312 47.60277344 -22.0546875 47.57421875 C-23.65546143 47.55234497 -23.65546143 47.55234497 -25.28857422 47.5300293 C-28 47 -28 47 -29.84033203 45.15161133 C-31.44993608 42.16520281 -31.55682939 40.34097636 -31 37 C-28.38887763 34.36718514 -26.74168733 33.11400202 -23.0456543 32.54589844 C-21.4510437 32.57731934 -21.4510437 32.57731934 -19.82421875 32.609375 C-18.66728516 32.62226563 -17.51035156 32.63515625 -16.31835938 32.6484375 C-15.12017578 32.68195313 -13.92199219 32.71546875 -12.6875 32.75 C-11.46998047 32.76804687 -10.25246094 32.78609375 -8.99804688 32.8046875 C-5.99789578 32.85174869 -2.99935111 32.9174869 0 33 C-0.33 32.01 -0.66 31.02 -1 30 C-1.80219971 29.9906543 -2.60439941 29.98130859 -3.4309082 29.97167969 C-7.05873639 29.91806258 -10.68526292 29.83439702 -14.3125 29.75 C-16.20645508 29.72873047 -16.20645508 29.72873047 -18.13867188 29.70703125 C-19.34716797 29.67480469 -20.55566406 29.64257812 -21.80078125 29.609375 C-22.91622314 29.58842773 -24.03166504 29.56748047 -25.1809082 29.54589844 C-28 29 -28 29 -29.85620117 27.14941406 C-31.44550449 24.16281291 -31.55541524 22.33249147 -31 19 C-28.76244084 16.33046088 -26.92934594 15.13928552 -23.46533203 14.62011719 C-20.41008514 14.45325331 -17.37223232 14.39008186 -14.3125 14.375 C-12.22514091 14.34955991 -10.13785912 14.31611257 -8.05078125 14.2734375 C-7.12950439 14.26747559 -6.20822754 14.26151367 -5.2590332 14.25537109 C-2.79950426 14.21497291 -2.79950426 14.21497291 -1 12 C-0.53603307 9.10776497 -0.53603307 9.10776497 -0.375 5.875 C-0.30023437 4.77929688 -0.22546875 3.68359375 -0.1484375 2.5546875 C-0.09945312 1.71164062 -0.05046875 0.86859375 0 0 Z " fill="#F3F4F3" transform="translate(552,422)"/>
<path d="M0 0 C2.5625 1.6875 2.5625 1.6875 4.5625 4.6875 C5.24138525 8.97394991 5.28758094 12.54410314 2.9375 16.25 C-0.03643023 18.0500104 -2.01993849 17.99818741 -5.4375 17.6875 C-5.4375 14.6875 -5.4375 14.6875 -3.4375 12.6875 C-3.19496187 10.47677023 -3.19496187 10.47677023 -3.3125 8.0625 C-3.33054687 7.24523437 -3.34859375 6.42796875 -3.3671875 5.5859375 C-3.39039063 4.95945312 -3.41359375 4.33296875 -3.4375 3.6875 C-8.67756911 2.92083113 -8.67756911 2.92083113 -13.234375 5.0703125 C-18.53582263 11.13285905 -19.76865051 16.37163762 -19.6875 24.25 C-19.69523438 25.00474609 -19.70296875 25.75949219 -19.7109375 26.53710938 C-19.71196961 31.93771344 -19.71196961 31.93771344 -17.4375 36.6875 C-13.96486727 38.42381636 -10.22556987 38.28940402 -6.4375 37.6875 C-3.68180553 35.50590855 -2.00161253 33.81572506 -0.4375 30.6875 C-1.71625 30.72875 -2.995 30.77 -4.3125 30.8125 C-6.4921875 30.8828125 -6.4921875 30.8828125 -8.4375 30.6875 C-9.0975 30.0275 -9.7575 29.3675 -10.4375 28.6875 C-10.4375 27.6975 -10.4375 26.7075 -10.4375 25.6875 C-4.8275 25.6875 0.7825 25.6875 6.5625 25.6875 C6.5625 26.6775 6.5625 27.6675 6.5625 28.6875 C5.5725 28.6875 4.5825 28.6875 3.5625 28.6875 C3.32466797 29.57501953 3.32466797 29.57501953 3.08203125 30.48046875 C1.31079489 36.47918636 -0.7167774 40.49974592 -6.32421875 43.796875 C-11.06092158 45.79311944 -16.01662713 45.19686952 -20.75 43.5 C-25.79881603 40.09498454 -27.78656922 36.44477131 -29.4375 30.6875 C-30.71759154 21.20989919 -28.9625312 13.53759856 -23.4375 5.6875 C-16.21817081 -0.66417483 -9.25791417 -3.53483996 0 0 Z " fill="#F4F5F4" transform="translate(591.4375,567.3125)"/>
<path d="M0 0 C2.8767759 1.53860351 3.59231428 2.32597142 5.5 5.1875 C6.04552912 11.29742617 6.04552912 11.29742617 4.3125 14.125 C1.93958382 15.51601983 0.20313576 15.40667317 -2.5 15.1875 C-2.5 11.1875 -2.5 7.1875 -2.5 3.1875 C-7.07011757 2.27148515 -10.32754911 1.62472357 -14.625 3.6875 C-16.78206052 6.12262148 -16.78206052 6.12262148 -16.875 9.5625 C-14.86932186 14.85019691 -11.27514195 16.47578859 -6.5 19.1875 C0.44013739 23.3719946 0.44013739 23.3719946 1.5 27.1875 C1.82388514 31.26845272 1.87630769 34.08366411 0.5625 37.9375 C-3.04736736 41.87553712 -7.58752461 43.75062869 -12.84375 44.5390625 C-18.09117324 44.7367394 -21.92538464 43.7492846 -26.5 41.1875 C-29.05517967 38.79717063 -29.44741919 37.61690997 -29.875 34.125 C-29.5 31.1875 -29.5 31.1875 -28.3125 29.3125 C-25.93963721 27.83968861 -24.24086056 27.96526806 -21.5 28.1875 C-20.5 30.1875 -20.5 30.1875 -21.0625 33.6875 C-21.206875 34.8425 -21.35125 35.9975 -21.5 37.1875 C-19.72290968 39.37179262 -19.72290968 39.37179262 -17.44140625 39.453125 C-16.26384766 39.44539062 -16.26384766 39.44539062 -15.0625 39.4375 C-14.28003906 39.44265625 -13.49757813 39.4478125 -12.69140625 39.453125 C-10.20955893 39.31926831 -10.20955893 39.31926831 -7.5 37.1875 C-6.91630557 33.77211856 -6.91630557 33.77211856 -7.5 30.1875 C-10.12042486 27.05970358 -12.93554269 25.23600288 -16.5 23.3125 C-20.73591707 20.82592921 -23.39760747 18.77453824 -25.5 14.1875 C-26.14590288 10.31208272 -25.69897724 8.58545448 -23.9375 5.0625 C-17.4978933 -2.53293354 -9.04142472 -4.24996189 0 0 Z " fill="#F6F7F6" transform="translate(552.5,567.8125)"/>
<path d="M0 0 C0.845625 -0.02835938 1.69125 -0.05671875 2.5625 -0.0859375 C5.99116558 0.56243195 6.95871493 1.53552012 9 4.375 C10.03464604 7.34481734 10.65235735 10.35376189 11.25 13.4375 C11.42273438 14.25283203 11.59546875 15.06816406 11.7734375 15.90820312 C12.44387526 19.14599184 13 22.05766346 13 25.375 C13.66 25.375 14.32 25.375 15 25.375 C15.26683594 24.68148437 15.53367187 23.98796875 15.80859375 23.2734375 C17.56545746 18.99936251 19.63375637 14.87845272 21.66015625 10.7265625 C23.05609684 7.23467613 23.61766036 4.10399153 24 0.375 C26.375 0.25 26.375 0.25 29 0.375 C29.66 1.035 30.32 1.695 31 2.375 C30.70478049 6.87866781 29.4110536 9.83808331 26.9375 13.5625 C26.31359375 14.5215625 25.6896875 15.480625 25.046875 16.46875 C23 19.375 23 19.375 20.828125 21.96875 C14.40668486 29.74947309 13.49028636 36.6060443 13 46.375 C10.66705225 46.41741723 8.33297433 46.41592937 6 46.375 C5.505 45.88 5.505 45.88 5 45.375 C5.04282212 43.44800475 5.09125902 41.52099144 5.16601562 39.5949707 C5.57377955 27.60268096 3.24407628 16.86903834 0 5.375 C-1.65 5.705 -3.3 6.035 -5 6.375 C-5.33 8.685 -5.66 10.995 -6 13.375 C-5.01 13.705 -4.02 14.035 -3 14.375 C-3.33 15.035 -3.66 15.695 -4 16.375 C-5.27875 16.436875 -6.5575 16.49875 -7.875 16.5625 C-8.95394531 16.61470703 -8.95394531 16.61470703 -10.0546875 16.66796875 C-10.69664062 16.57128906 -11.33859375 16.47460938 -12 16.375 C-14.34549674 12.85675489 -14.57991403 11.51724306 -14 7.375 C-9.97378589 2.45407164 -6.35411076 0.09686144 0 0 Z " fill="#F6F7F6" transform="translate(493,565.625)"/>
<path d="M0 0 C2.97 0 5.94 0 9 0 C11.60868369 2.60868369 11.25728913 3.74532364 11.265625 7.375 C11.26820313 8.44234375 11.27078125 9.5096875 11.2734375 10.609375 C11.26570312 11.72828125 11.25796875 12.8471875 11.25 14 C11.25773438 15.11890625 11.26546875 16.2378125 11.2734375 17.390625 C11.27085937 18.45796875 11.26828125 19.5253125 11.265625 20.625 C11.26336914 21.60726562 11.26111328 22.58953125 11.25878906 23.6015625 C11 26 11 26 9 28 C6.03 28 3.06 28 0 28 C0 18.76 0 9.52 0 0 Z " fill="#3C4E3B" transform="translate(565,498)"/>
<path d="M0 0 C0.33 0 0.66 0 1 0 C1 1.98 1 3.96 1 6 C2.19625 5.938125 3.3925 5.87625 4.625 5.8125 C8.75714528 5.8125 11.47788178 6.73578114 15 9 C18.02435097 13.53652646 17.32896012 17.97612901 17.3125 23.3125 C17.32861328 24.34568359 17.34472656 25.37886719 17.36132812 26.44335938 C17.36489132 31.99837299 17.28682535 36.28144277 14 41 C10.68629 43.20914 9.6553979 43.22481553 5.8125 43.125 C4.91144531 43.10695313 4.01039063 43.08890625 3.08203125 43.0703125 C2.39496094 43.04710937 1.70789063 43.02390625 1 43 C1 44.98 1 46.96 1 49 C0.67 49 0.34 49 0 49 C0 32.83 0 16.66 0 0 Z M1 11 C1 20.24 1 29.48 1 39 C3.97 39 6.94 39 10 39 C12.60868369 36.39131631 12.25728913 35.25467636 12.265625 31.625 C12.26820313 30.55765625 12.27078125 29.4903125 12.2734375 28.390625 C12.26570312 27.27171875 12.25796875 26.1528125 12.25 25 C12.26160156 23.32164062 12.26160156 23.32164062 12.2734375 21.609375 C12.26957031 20.00835937 12.26957031 20.00835937 12.265625 18.375 C12.26336914 17.39273437 12.26111328 16.41046875 12.25878906 15.3984375 C12.23372863 12.81561503 12.23372863 12.81561503 10 11 C7.03 11 4.06 11 1 11 Z " fill="#E3E6E3" transform="translate(564,487)"/>
<path d="M0 0 C0.66 0.33 1.32 0.66 2 1 C1.154375 1.66 0.30875 2.32 -0.5625 3 C-2.97364321 5.00928601 -5.03444615 7.10689646 -7.0625 9.5 C-11.39993534 14.59430325 -16.16430354 19.24453206 -20.9140625 23.94921875 C-21.43750244 24.46895264 -21.96094238 24.98868652 -22.50024414 25.52416992 C-23.85155365 26.85392184 -25.22341828 28.16270729 -26.59765625 29.46875 C-29.36911094 32.38891689 -31.57714908 35.47621085 -33.8125 38.8125 C-34.21919922 39.40998047 -34.62589844 40.00746094 -35.04492188 40.62304688 C-36.03479703 42.07874564 -37.01809735 43.53891174 -38 45 C-38.7578125 43.33203125 -38.7578125 43.33203125 -39 41 C-37.3046875 38.44921875 -37.3046875 38.44921875 -34.875 35.6875 C-30.8798114 31.04721279 -30.8798114 31.04721279 -27.25 26.125 C-25.04579281 23.06360112 -22.73004755 20.59354517 -20 18 C-19.113125 17.071875 -18.22625 16.14375 -17.3125 15.1875 C-15 13 -15 13 -13 13 C-13 12.34 -13 11.68 -13 11 C-12.34 11 -11.68 11 -11 11 C-10.76539063 10.41734375 -10.53078125 9.8346875 -10.2890625 9.234375 C-8.70847076 6.49468266 -6.90598503 5.13016031 -4.375 3.25 C-3.55773437 2.63640625 -2.74046875 2.0228125 -1.8984375 1.390625 C-1.27195312 0.93171875 -0.64546875 0.4728125 0 0 Z " fill="#A3ACA2" transform="translate(441,394)"/>
<path d="M0 0 C3.20419855 0.28144987 4.00246392 1.00288207 6.140625 3.50390625 C6.83671875 4.51324219 7.5328125 5.52257812 8.25 6.5625 C8.95640625 7.57441406 9.6628125 8.58632813 10.390625 9.62890625 C10.92171875 10.41136719 11.4528125 11.19382812 12 12 C10.50923566 15.2826932 8.61379679 17.93077441 6.375 20.75 C5.74335937 21.54921875 5.11171875 22.3484375 4.4609375 23.171875 C3.97882812 23.77515625 3.49671875 24.3784375 3 25 C2.01 24.67 1.02 24.34 0 24 C1.58404365 21.22792362 3.13625518 18.84482049 5.25 16.4375 C7.23746627 14.23945659 7.23746627 14.23945659 6.80078125 12.10546875 C5.8601008 9.63216747 4.59357244 7.93432413 2.9375 5.875 C0 2.21176471 0 2.21176471 0 0 Z " fill="#4D5E4C" transform="translate(544,499)"/>
<path d="M0 0 C0.99 0 1.98 0 3 0 C1.5140084 4.59306496 -0.85014682 7.43569245 -4 11 C-2.44298069 15.67105792 0.08447373 19.08705685 3 23 C2.67 23.66 2.34 24.32 2 25 C-1.93677426 23.68774191 -2.8271782 21.8038606 -5.1875 18.4375 C-5.90292969 17.42558594 -6.61835937 16.41367187 -7.35546875 15.37109375 C-7.89816406 14.58863281 -8.44085937 13.80617188 -9 13 C-7.51804579 9.78541276 -5.70259491 7.06664104 -3.5625 4.25 C-2.96566406 3.45078125 -2.36882813 2.6515625 -1.75390625 1.828125 C-1.17511719 1.22484375 -0.59632813 0.6215625 0 0 Z " fill="#4A5B49" transform="translate(532,499)"/>
<path d="M0 0 C0.66 0 1.32 0 2 0 C1.50793415 7.38098781 -0.06548879 14.17864563 -3 21 C-3.66 21.33 -4.32 21.66 -5 22 C-4.47458553 14.2501365 -2.44408524 7.3549914 0 0 Z " fill="#5A6A59" transform="translate(541,500)"/>
<path d="M0 0 C5.25243883 2.47173592 7.76316297 6.39405697 11 11 C11.50402344 11.65097656 12.00804687 12.30195313 12.52734375 12.97265625 C13.7663235 14.58916446 14.89355709 16.29004278 16 18 C15.67 18.99 15.34 19.98 15 21 C14.50371094 20.29875 14.00742187 19.5975 13.49609375 18.875 C9.65387663 13.50901936 5.75018411 8.39026463 1.25 3.55859375 C0 2 0 2 0 0 Z " fill="#F3F4F3" transform="translate(661,416)"/>
<path d="M0 0 C0.66 0.33 1.32 0.66 2 1 C0.08468515 3.56351289 -1.83249544 6.12562472 -3.75 8.6875 C-4.28882813 9.40873047 -4.82765625 10.12996094 -5.3828125 10.87304688 C-8.19732265 14.63144762 -11.03823659 18.35530571 -14 22 C-13.45427223 18.13860731 -12.46175927 15.84942198 -10.05859375 12.79296875 C-9.47529297 12.04208984 -8.89199219 11.29121094 -8.29101562 10.51757812 C-7.67935547 9.74865234 -7.06769531 8.97972656 -6.4375 8.1875 C-5.82197266 7.39923828 -5.20644531 6.61097656 -4.57226562 5.79882812 C-3.05604676 3.85947841 -1.53187371 1.92699104 0 0 Z " fill="#EDEEED" transform="translate(416,417)"/>
<path d="M0 0 C0.99 0 1.98 0 3 0 C1.64531705 4.87685861 -0.71675909 6.48592381 -5 9 C-5 4.66314164 -2.91985986 3.0556673 0 0 Z " fill="#516250" transform="translate(532,499)"/>
<path d="M0 0 C3.9945793 2.05127045 6.10267152 3.88912162 8 8 C7.67 8.66 7.34 9.32 7 10 C5.82739389 8.71372289 4.6620717 7.42080217 3.5 6.125 C2.8503125 5.40570313 2.200625 4.68640625 1.53125 3.9453125 C0 2 0 2 0 0 Z " fill="#E7E9E7" transform="translate(661,416)"/>
</svg>
